<svg version="1.0" xmlns="http://www.w3.org/2000/svg"
 width="300.000000pt" height="300.000000pt" viewBox="0 0 300.000000 300.000000"
 preserveAspectRatio="xMidYMid meet">
<g transform="translate(0.000000,300.000000) scale(0.050000,-0.050000)"
fill="#e15c31" stroke="none">
<path d="M4665 4055 c-82 -20 -117 -55 -55 -55 17 0 30 -17 30 -37 0 -44 -157
-753 -192 -868 -8 -28 1 -35 46 -35 52 0 59 9 81 105 33 137 114 295 199 388
104 113 116 71 55 -189 -56 -240 -57 -310 -6 -320 42 -8 177 109 176 153 0 24
-14 16 -49 -26 -72 -89 -76 -58 -19 177 96 400 -44 496 -234 160 -58 -104 -85
-136 -68 -83 16 48 151 618 151 636 0 21 0 22 -115 -6z"/>
<path d="M4159 3948 c-34 -40 -3 -95 57 -104 54 -8 98 65 63 107 -31 38 -88
37 -120 -3z"/>
<path d="M4413 3789 c-31 -39 -78 -81 -105 -93 -59 -28 -62 -56 -6 -56 26 0
38 -10 33 -25 -6 -14 -30 -110 -54 -215 -38 -158 -55 -198 -104 -237 -86 -70
-87 -53 -17 247 73 309 74 301 -49 274 -52 -11 -96 -12 -102 -2 -18 29 -89 20
-102 -13 -7 -17 3 -47 21 -66 47 -52 40 -106 -32 -253 -88 -177 -96 -167 -96
112 0 297 -15 299 -139 21 l-91 -204 -5 105 c-14 312 -29 347 -129 294 -33
-18 -36 -26 -14 -39 21 -13 31 -92 38 -313 l11 -296 113 230 113 230 2 -214
c0 -117 10 -219 20 -225 45 -28 301 426 301 534 0 54 44 77 69 37 6 -10 -12
-115 -40 -234 -79 -334 -45 -428 101 -282 66 66 70 67 70 24 0 -68 46 -99 104
-68 56 29 139 122 123 137 -6 6 -25 -9 -42 -34 -36 -54 -93 -61 -77 -10 5 19
29 121 53 225 60 269 56 260 110 260 27 0 49 9 49 20 0 11 -19 20 -42 20 -44
0 -46 45 -7 145 22 58 -17 40 -78 -36z"/>
<path d="M1053 3472 c-531 -197 -599 -1160 -99 -1405 229 -112 511 -50 649
141 56 77 57 77 57 24 0 -226 285 -292 430 -100 27 36 29 34 29 -27 l1 -65
360 0 c323 0 434 16 320 46 -39 10 -40 27 -40 692 l0 682 -148 0 c-82 0 -163
5 -180 12 -21 8 -32 1 -32 -18 0 -17 20 -34 45 -38 l45 -6 0 -660 0 -660 -50
0 -50 0 -5 455 -6 455 -179 0 c-163 0 -248 -28 -135 -44 44 -6 45 -10 50 -354
7 -387 -10 -442 -136 -442 -74 0 -78 24 -79 465 l0 375 -135 0 -135 0 6 250
c6 249 -12 315 -56 200 -23 -61 -37 -62 -156 -7 -117 54 -270 66 -371 29z
m409 -167 c75 -80 147 -259 126 -313 -6 -15 4 -32 21 -39 26 -10 31 -58 31
-308 l0 -297 -95 -93 c-219 -215 -427 -201 -545 35 -81 162 -76 747 7 917 107
217 304 260 455 98z"/>
<path d="M3054 3252 c-31 -59 -105 -157 -164 -218 -111 -113 -117 -134 -38
-134 l46 0 6 -392 6 -392 56 -48 c104 -89 254 -55 333 75 l36 59 25 -62 c59
-143 229 -166 360 -48 l80 73 0 -63 0 -62 360 0 c312 0 469 22 315 44 -44 6
-45 11 -50 343 -7 395 9 445 115 353 104 -90 221 39 156 174 -52 111 -256 42
-256 -86 0 -15 -10 -28 -23 -28 -15 0 -18 26 -9 80 l12 80 -170 0 c-159 0
-221 -22 -130 -46 63 -16 53 -864 -10 -864 -39 0 -40 15 -45 455 l-6 455 -179
0 c-163 0 -248 -28 -135 -44 69 -9 81 -676 14 -747 -146 -155 -179 -82 -179
392 l0 399 -223 0 -223 0 13 180 c15 216 -9 234 -93 72z m271 -687 l5 -335
-53 -45 c-125 -106 -137 -73 -137 367 l0 348 90 0 89 0 6 -335z"/>
<path d="M4898 2975 c-268 -182 -286 -718 -29 -901 152 -109 407 -40 499 133
54 103 27 161 -34 70 -140 -207 -337 -105 -382 198 l-12 85 230 0 230 0 0 65
c0 304 -280 499 -502 350z m236 -75 c14 -27 26 -102 26 -165 l0 -115 -113 0
-113 0 13 124 c21 202 122 286 187 156z"/>
</g>
</svg>